# xmcd
#
# Track frame offsets: 
#        150
#        17282
#        36805
#        54890
#        82305
#        97490
#        127742
#        142202
#        163275
#        176942
#
# Disc length: 2594 seconds
#
# Revision: 1
# Processed by: cddbd v1.5.2PL0 Copyright (c) Steve Scherf et al.
# Submitted via: ExactAudioCopyFreeDBPlugin 1.0
#
DISCID=8c0a200a
DTITLE=Fredl Fesl - 5-Die Fünfte
DYEAR=2004
DGENRE=Cabaret
TTITLE0=Ein Pferd hat vier Beiner
TTITLE1=Winterwald
TTITLE2=Aller Anfang ist schwer
TTITLE3=Und ewig dauert der Berg
TTITLE4=Jemsenjäger
TTITLE5=Sammler und Hochstapler
TTITLE6=Der Schatz von Großzapfelsberg
TTITLE7=Wallfahrt
TTITLE8=Ukrainischer Holzschnitt
TTITLE9=Weil i net mog
EXTD=
EXTT0=
EXTT1=
EXTT2=
EXTT3=
EXTT4=
EXTT5=
EXTT6=
EXTT7=
EXTT8=
EXTT9=
PLAYORDER=
